<svg xmlns="http://www.w3.org/2000/svg" width="39.264" height="48" viewBox="0 0 39.264 48">
  <g id="Group_273" data-name="Group 273" transform="translate(-317 311)">
    <g id="Layer_3" data-name="Layer 3" transform="translate(343.394 -300.027)">
      <path id="Path_1" data-name="Path 1" d="M276.961,174.412,276,187.5s0,.975.884.975h8.7s.807,0,.807-1.1l2.256-30.252-4.323-5.678-6.129,6.322Z" transform="translate(-276 -151.45)" fill="#e60c2b"/>
    </g>
    <g id="Layer_2" data-name="Layer 2" transform="translate(318.732 -285.452)">
      <path id="Path_2" data-name="Path 2" d="M91.758,261.557l-1.612,21.1s-.169,1.1.89,1.1h8.342s1.154,0,1.154-1.032l1.226-16.065-10-5.354Z" transform="translate(-90.136 -261.3)" fill="#e60c2b"/>
    </g>
    <g id="Layer_8" data-name="Layer 8" transform="translate(323.516 -308.935)">
      <path id="Path_3" data-name="Path 3" d="M158.577,104.632s-7.032,13.737-31.936-20.322l-.451,4.839s14.581,21.934,28,19.483a5.247,5.247,0,0,0,4.388-4h0" transform="translate(-126.19 -84.31)" fill="#fe934b"/>
    </g>
    <g id="Layer_7" data-name="Layer 7" transform="translate(317 -311)">
      <path id="Path_4" data-name="Path 4" d="M77.08,76.1S94.37,94.681,102.435,96.3s11.1,5.29,13.548-5.161h0s-4.968,13.87-27.484-10.9L77.79,68.75Z" transform="translate(-77.08 -68.75)" fill="#f98334"/>
    </g>
    <g id="Layer_6" data-name="Layer 6" transform="translate(318.226 -301.581)">
      <path id="Path_5" data-name="Path 5" d="M86.32,147.611s18.516,18.129,32.579,13.161c0,0,5.1-.9,5.1-8.065h0s-3.807,20-36.839-12.967Z" transform="translate(-86.32 -139.74)" fill="#fa7419"/>
    </g>
    <g id="Layer_5" data-name="Layer 5" transform="translate(320.032 -291.582)">
      <path id="Path_6" data-name="Path 6" d="M99.93,221.23s17.1,12.963,31.355,6.839a9.022,9.022,0,0,0,4.511-10s.322,20.964-35.294-2.968Z" transform="translate(-99.93 -215.1)" fill="#ff6700"/>
    </g>
    <path id="Path_15" data-name="Path 15" d="M226.63,64.185l-3.617-4.673-.76-.982-.862.9-5.22,5.42-.141,1.919,6.122-6.357,4.343,5.613Z" transform="translate(129.634 -361.764)" fill="#e60c2b"/>
  </g>
</svg>
